<svg xmlns="http://www.w3.org/2000/svg" version="1.1" xmlns:xlink="http://www.w3.org/1999/xlink" xmlns:svgjs="http://svgjs.dev/svgjs" width="2000" height="1999" viewBox="0 0 2000 1999"><g transform="matrix(1,0,0,1,-0.431486880466764,-0.4312711370263287)"><svg viewBox="0 0 343 343" data-background-color="#ffffff" preserveAspectRatio="xMidYMid meet" height="1999" width="2000" xmlns="http://www.w3.org/2000/svg" xmlns:xlink="http://www.w3.org/1999/xlink"><defs></defs><g id="tight-bounds" transform="matrix(1,0,0,1,0.0740000000000407,0.07400000000001228)"><svg viewBox="0 0 342.85155851775386 342.85155851775386" height="342.85155851775386" width="342.85155851775386"><g><svg></svg></g><g><svg viewBox="0 0 342.85155851775386 342.85155851775386" height="342.85155851775386" width="342.85155851775386"><g><path d="M0 171.426c0-94.676 76.75-171.426 171.426-171.426 94.676 0 171.426 76.75 171.426 171.426 0 94.676-76.75 171.426-171.426 171.426-94.676 0-171.426-76.75-171.426-171.426zM171.426 339.369c92.753 0 167.943-75.191 167.943-167.943 0-92.753-75.191-167.943-167.943-167.944-92.753 0-167.943 75.191-167.944 167.944 0 92.753 75.191 167.943 167.944 167.943z" data-fill-palette-color="tertiary" fill="#1e55b3" stroke="transparent"></path><ellipse rx="164.56874808852186" ry="164.56874808852186" cx="171.42577925887693" cy="171.42577925887693" fill="#1e55b3" stroke="transparent" stroke-width="0" fill-opacity="1" data-fill-palette-color="tertiary"></ellipse></g><g transform="matrix(1,0,0,1,64.84655864529837,120.87736356769604)"><svg viewBox="0 0 213.1584412271571 101.09683138236178" height="101.09683138236178" width="213.1584412271571"><g><svg viewBox="0 0 213.1584412271571 101.09683138236178" height="101.09683138236178" width="213.1584412271571"><g><svg viewBox="0 0 213.1584412271571 101.09683138236178" height="101.09683138236178" width="213.1584412271571"><g transform="matrix(1,0,0,1,0,62.48189759802482)"><svg viewBox="0 0 213.1584412271571 38.61493378433696" height="38.61493378433696" width="213.1584412271571"><g><svg viewBox="0 0 213.1584412271571 38.61493378433696" height="38.61493378433696" width="213.1584412271571"><g><svg viewBox="0 0 213.1584412271571 38.61493378433696" height="38.61493378433696" width="213.1584412271571"><g transform="matrix(1,0,0,1,0,0)"><svg width="213.1584412271571" viewBox="2.0999999046325684 -37.75 212.77999877929688 38.54999923706055" height="38.61493378433696" data-palette-color="#ffffff"><path d="M32-23.85L29.7-23.85Q29.15-28.35 26.6-30.78 24.05-33.2 19.95-33.25L19.95-33.25Q17.35-33.25 15.15-32.1 12.95-30.95 11.35-28.88 9.75-26.8 8.88-23.98 8-21.15 8-17.8L8-17.8Q8-13.25 9.6-9.73 11.2-6.2 14.03-4.25 16.85-2.3 20.45-2.3L20.45-2.3Q23.65-2.3 26.78-3.83 29.9-5.35 31.95-8.15L31.95-8.15 33.6-6.75Q31.35-3.65 28.8-2 26.25-0.35 23.73 0.23 21.2 0.8 19.15 0.8L19.15 0.8Q15.4 0.8 12.25-0.55 9.1-1.9 6.83-4.33 4.55-6.75 3.33-9.98 2.1-13.2 2.1-16.95L2.1-16.95Q2.1-20.45 3.2-23.8 4.3-27.15 6.45-29.88 8.6-32.6 11.88-34.2 15.15-35.8 19.5-35.8L19.5-35.8Q22.05-35.8 24.48-35.1 26.9-34.4 29.15-32.95L29.15-32.95 28.9-35.45 32-35.45 32-23.85ZM52.55 0L52.55-2.1Q54.05-2.1 54.67-2.8 55.3-3.5 55.42-4.75 55.55-6 55.55-7.65L55.55-7.65 55.5-14.65Q55.5-18.6 54.27-20.58 53.05-22.55 50.35-22.5L50.35-22.5Q48.7-22.45 47.12-21.7 45.55-20.95 44.5-19.8L44.5-19.8 44.5-6.2Q44.5-5.3 44.45-4.38 44.4-3.45 44.3-2.5L44.3-2.5Q45.1-2.55 45.92-2.58 46.75-2.6 47.45-2.65L47.45-2.65 47.45 0 36.3 0 36.3-2.1Q37.8-2.1 38.4-2.8 39-3.5 39.15-4.75 39.3-6 39.3-7.65L39.3-7.65 39.3-30.25Q39.3-31.1 39.32-31.98 39.35-32.85 39.45-33.85L39.45-33.85Q38.6-33.8 37.65-33.77 36.7-33.75 35.9-33.7L35.9-33.7 35.9-36.35Q38.15-36.35 39.5-36.58 40.85-36.8 41.57-37.1 42.3-37.4 42.65-37.75L42.65-37.75 44.5-37.75 44.5-22.65Q45.6-23.55 46.95-24.25 48.3-24.95 49.72-25.38 51.15-25.8 52.4-25.8L52.4-25.8Q56.85-25.8 58.77-23.1 60.7-20.4 60.75-14.65L60.75-14.65 60.75-6.2Q60.75-5.3 60.72-4.38 60.7-3.45 60.55-2.5L60.55-2.5Q61.35-2.55 62.2-2.58 63.05-2.6 63.75-2.65L63.75-2.65 63.75 0 52.55 0ZM89.9 0L81.95 0Q81.84-0.8 81.8-1.4 81.75-2 81.65-2.65L81.65-2.65Q79.95-0.95 78-0.08 76.05 0.8 73.95 0.8L73.95 0.8Q70.34 0.8 68.52-0.98 66.7-2.75 66.7-5.4L66.7-5.4Q66.7-7.7 68.05-9.4 69.39-11.1 71.59-12.18 73.8-13.25 76.4-13.78 79-14.3 81.5-14.3L81.5-14.3 81.5-17.25Q81.5-18.85 81.2-20.23 80.9-21.6 79.97-22.48 79.05-23.35 77.09-23.35L77.09-23.35Q75.8-23.4 74.5-22.88 73.2-22.35 72.5-21.15L72.5-21.15Q72.89-20.75 73.02-20.23 73.14-19.7 73.14-19.25L73.14-19.25Q73.14-18.55 72.55-17.68 71.95-16.8 70.5-16.85L70.5-16.85Q69.3-16.85 68.67-17.68 68.05-18.5 68.05-19.6L68.05-19.6Q68.05-21.4 69.37-22.8 70.7-24.2 73-25 75.3-25.8 78.15-25.8L78.15-25.8Q82.45-25.8 84.57-23.55 86.7-21.3 86.7-16.45L86.7-16.45Q86.7-14.65 86.7-13 86.7-11.35 86.67-9.7 86.65-8.05 86.65-6.2L86.65-6.2Q86.65-5.45 86.59-4.5 86.55-3.55 86.45-2.5L86.45-2.5Q87.3-2.55 88.2-2.6 89.09-2.65 89.9-2.65L89.9-2.65 89.9 0ZM81.5-12L81.5-12Q79.9-11.9 78.22-11.55 76.55-11.2 75.2-10.5 73.84-9.8 73.02-8.7 72.2-7.6 72.2-6.05L72.2-6.05Q72.3-4.35 73.32-3.55 74.34-2.75 75.75-2.75L75.75-2.75Q77.5-2.75 78.84-3.43 80.2-4.1 81.5-5.3L81.5-5.3Q81.45-5.85 81.45-6.43 81.45-7 81.45-7.65L81.45-7.65Q81.45-8.1 81.47-9.33 81.5-10.55 81.5-12ZM102.39 0.8L102.39 0.8Q101.14 0.8 99.89 0.48 98.64 0.15 97.57-0.83 96.49-1.8 95.89-3.65 95.29-5.5 95.29-8.55L95.29-8.55 95.39-22.2 91.69-22.2 91.69-25Q93.04-25.05 94.44-26 95.84-26.95 96.89-28.55 97.94-30.15 98.34-32L98.34-32 100.69-32 100.69-25 108.39-25 108.39-22.4 100.69-22.3 100.59-8.95Q100.59-7.05 100.92-5.63 101.24-4.2 102.02-3.43 102.79-2.65 104.14-2.65L104.14-2.65Q105.29-2.65 106.52-3.35 107.74-4.05 108.84-5.65L108.84-5.65 110.54-4.15Q109.34-2.4 108.14-1.4 106.94-0.4 105.84 0.08 104.74 0.55 103.84 0.68 102.94 0.8 102.39 0.8ZM123.79 0L112.64 0 112.64-2.1Q114.14-2.1 114.74-2.8 115.34-3.5 115.47-4.75 115.59-6 115.59-7.65L115.59-7.65 115.64-18.05Q115.64-18.85 115.67-19.78 115.69-20.7 115.84-21.6L115.84-21.6Q114.94-21.55 114.02-21.53 113.09-21.5 112.29-21.45L112.29-21.45 112.29-24.1Q114.54-24.1 115.82-24.33 117.09-24.55 117.77-24.85 118.44-25.15 118.79-25.5L118.79-25.5 120.59-25.5Q120.64-25.05 120.67-24.65 120.69-24.25 120.72-23.8 120.74-23.35 120.79-22.65L120.79-22.65Q121.89-23.55 123.19-24.25 124.49-24.95 125.92-25.38 127.34-25.8 128.64-25.8L128.64-25.8Q133.09-25.8 135.06-23.1 137.04-20.4 137.04-14.65L137.04-14.65 137.04-6.2Q137.04-5.3 136.99-4.38 136.94-3.45 136.84-2.5L136.84-2.5Q137.64-2.55 138.47-2.58 139.29-2.6 139.99-2.65L139.99-2.65 139.99 0 128.84 0 128.84-2.1Q130.34-2.1 130.94-2.8 131.54-3.5 131.67-4.75 131.79-6 131.79-7.65L131.79-7.65 131.79-14.65Q131.74-18.6 130.52-20.6 129.29-22.6 126.59-22.55L126.59-22.55Q124.99-22.55 123.44-21.75 121.89-20.95 120.84-19.8L120.84-19.8Q120.84-19.3 120.84-18.73 120.84-18.15 120.84-17.55L120.84-17.55 120.84-6.2Q120.84-5.3 120.79-4.38 120.74-3.45 120.64-2.5L120.64-2.5Q121.44-2.55 122.27-2.58 123.09-2.6 123.79-2.65L123.79-2.65 123.79 0ZM155.49 0.8L155.49 0.8Q151.99 0.8 149.21-0.83 146.44-2.45 144.84-5.43 143.24-8.4 143.24-12.45L143.24-12.45Q143.24-15.95 144.81-19 146.39-22.05 149.24-23.93 152.09-25.8 155.84-25.8L155.84-25.8Q157.94-25.8 159.81-25.15 161.69-24.5 163.16-23.13 164.64-21.75 165.49-19.58 166.34-17.4 166.34-14.3L166.34-14.3 149.14-14Q149.14-10.6 149.91-7.95 150.69-5.3 152.44-3.85 154.19-2.4 156.99-2.4L156.99-2.4Q158.34-2.4 159.86-2.88 161.39-3.35 162.76-4.25 164.14-5.15 165.09-6.4L165.09-6.4 166.64-5.05Q165.14-2.8 163.19-1.53 161.24-0.25 159.21 0.28 157.19 0.8 155.49 0.8ZM149.34-16.6L149.34-16.6 160.89-16.6Q160.89-18.5 160.36-20.03 159.84-21.55 158.74-22.45 157.64-23.35 155.94-23.35L155.94-23.35Q153.29-23.35 151.59-21.68 149.89-20 149.34-16.6ZM178.09 0L169.69 0 169.69-2.05Q171.09-2.45 171.99-3.35 172.89-4.25 174.14-5.85L174.14-5.85 178.94-11.85Q178.19-12.8 177.24-14 176.29-15.2 175.44-16.35 174.59-17.5 173.99-18.2L173.99-18.2Q172.99-19.5 172.31-20.63 171.64-21.75 171.34-22.45L171.34-22.45 169.34-22.35 169.34-25 179.89-25 179.89-22.95Q177.89-22.9 177.76-21.98 177.64-21.05 179.19-19L179.19-19 181.89-15.45 185.59-19.9Q186.29-20.7 186.81-21.35 187.34-22 187.89-22.55L187.89-22.55 184.79-22.35 184.79-25 193.19-25 193.19-22.95Q191.94-22.55 191.01-21.93 190.09-21.3 189.21-20.38 188.34-19.45 187.19-18.05L187.19-18.05 183.54-13.6 190.04-5.65Q190.64-4.9 191.21-4.17 191.79-3.45 192.34-2.5L192.34-2.5 194.39-2.65 194.39 0 184.04 0 184.04-2.05Q185.34-2.1 185.71-2.7 186.09-3.3 185.09-4.5L185.09-4.5 180.59-9.9 177.04-5.15Q176.44-4.35 175.91-3.73 175.39-3.1 174.74-2.45L174.74-2.45 178.09-2.65 178.09 0ZM206.73 0.8L206.73 0.8Q205.48 0.8 204.23 0.48 202.98 0.15 201.91-0.83 200.83-1.8 200.23-3.65 199.63-5.5 199.63-8.55L199.63-8.55 199.73-22.2 196.03-22.2 196.03-25Q197.38-25.05 198.78-26 200.18-26.95 201.23-28.55 202.28-30.15 202.68-32L202.68-32 205.03-32 205.03-25 212.73-25 212.73-22.4 205.03-22.3 204.93-8.95Q204.93-7.05 205.26-5.63 205.58-4.2 206.36-3.43 207.13-2.65 208.48-2.65L208.48-2.65Q209.63-2.65 210.86-3.35 212.08-4.05 213.18-5.65L213.18-5.65 214.88-4.15Q213.68-2.4 212.48-1.4 211.28-0.4 210.18 0.08 209.08 0.55 208.18 0.68 207.28 0.8 206.73 0.8Z" opacity="1" transform="matrix(1,0,0,1,0,0)" fill="#ffffff" class="undefined-text-0" data-fill-palette-color="quaternary" id="text-0"></path></svg></g></svg></g></svg></g></svg></g><g transform="matrix(1,0,0,1,70.27142038222243,0)"><svg viewBox="0 0 72.61560046271227 53.36583848995369" height="53.36583848995369" width="72.61560046271227"><g><svg xmlns="http://www.w3.org/2000/svg" xmlns:xlink="http://www.w3.org/1999/xlink" version="1.1" x="0" y="0" viewBox="7.552000045776367 18.47899627685547 87.46800231933594 64.28099822998047" enable-background="new 0 0 100 100" xml:space="preserve" height="53.36583848995369" width="72.61560046271227" class="icon-icon-0" data-fill-palette-color="quaternary" id="icon-0"><path d="M31.805 41.953c0-5.497 2.443-10.57 6.546-14.639-0.238-0.004-0.474-0.013-0.712-0.013-16.615 0-30.087 9.948-30.087 22.221 0 9.36 7.837 17.36 18.926 20.634l-0.585 12.604 8.693-11.016c0 0 1.642 0 3.053 0 7.925 0 15.129-2.267 20.502-5.965C43.185 63.725 31.805 53.826 31.805 41.953z" fill="#ffffff" data-fill-palette-color="quaternary"></path><g fill="#ffffff" data-fill-palette-color="quaternary"><path d="M76.966 82.062l-11.95-15.139h-2.081c-17.693 0-32.089-10.865-32.089-24.223 0-13.355 14.396-24.221 32.089-24.221 17.691 0 32.085 10.866 32.085 24.221 0 9.637-7.348 18.172-18.857 22.078L76.966 82.062zM62.935 22.48c-15.487 0-28.089 9.071-28.089 20.221 0 11.15 12.602 20.223 28.089 20.223h4.021l5.437 6.889-0.369-7.949 1.504-0.443C84.153 58.281 91.02 50.934 91.02 42.701 91.02 31.551 78.421 22.48 62.935 22.48z" fill="#ffffff" data-fill-palette-color="quaternary"></path></g></svg></g></svg></g><g></g></svg></g></svg></g></svg></g></svg></g></svg><rect width="342.85155851775386" height="342.85155851775386" fill="none" stroke="none" visibility="hidden"></rect></g></svg></g></svg>